<svg xmlns="http://www.w3.org/2000/svg" xmlns:xlink="http://www.w3.org/1999/xlink" width="500" zoomAndPan="magnify" viewBox="0 0 375 374.999991" height="500" preserveAspectRatio="xMidYMid meet" version="1.0"><defs><g/></defs><g fill="#ffffff" fill-opacity="1"><g transform="translate(20.610976, 281.643916)"><g><path d="M 14.703125 0 L 14.703125 -183.84375 L 99.28125 -183.84375 C 108.59375 -183.84375 116.585938 -182.644531 123.265625 -180.25 C 129.941406 -177.863281 135.425781 -174.707031 139.71875 -170.78125 C 144.007812 -166.863281 147.410156 -162.546875 149.921875 -157.828125 C 152.429688 -153.109375 154.175781 -148.453125 155.15625 -143.859375 C 156.144531 -139.265625 156.640625 -135.128906 156.640625 -131.453125 C 156.640625 -127.773438 156.144531 -123.632812 155.15625 -119.03125 C 154.175781 -114.4375 152.429688 -109.84375 149.921875 -105.25 C 147.410156 -100.65625 144.007812 -96.394531 139.71875 -92.46875 C 135.425781 -88.550781 129.972656 -85.363281 123.359375 -82.90625 C 116.742188 -80.457031 108.71875 -79.171875 99.28125 -79.046875 L 93.9375 -79.046875 C 91.25 -79.046875 90.023438 -78.617188 90.265625 -77.765625 C 90.515625 -76.910156 91.738281 -75.625 93.9375 -73.90625 C 99.09375 -69.863281 104.332031 -64.46875 109.65625 -57.71875 C 114.988281 -50.976562 121.023438 -43.078125 127.765625 -34.015625 C 131.566406 -28.984375 135.582031 -24.203125 139.8125 -19.671875 C 144.039062 -15.140625 148.082031 -11.1875 151.9375 -7.8125 C 155.800781 -4.4375 159.082031 -1.832031 161.78125 0 L 141.015625 0 C 136.722656 -2.570312 132.304688 -6.28125 127.765625 -11.125 C 123.234375 -15.96875 118.695312 -21.390625 114.15625 -27.390625 C 109.625 -33.398438 105.117188 -39.40625 100.640625 -45.40625 C 96.171875 -51.414062 91.789062 -56.960938 87.5 -62.046875 C 83.21875 -67.128906 79.050781 -71.234375 75 -74.359375 C 70.957031 -77.484375 67.097656 -79.046875 63.421875 -79.046875 L 47.0625 -79.046875 L 47.0625 -82.734375 L 83.09375 -82.734375 C 101.476562 -82.734375 115.421875 -87.113281 124.921875 -95.875 C 134.421875 -104.632812 139.171875 -116.492188 139.171875 -131.453125 C 139.171875 -146.398438 134.421875 -158.253906 124.921875 -167.015625 C 115.421875 -175.785156 101.476562 -180.171875 83.09375 -180.171875 L 38.96875 -180.171875 C 35.664062 -180.171875 33.21875 -179.492188 31.625 -178.140625 C 30.03125 -176.796875 29.234375 -173.609375 29.234375 -168.578125 C 29.234375 -167.847656 29.234375 -164.9375 29.234375 -159.84375 C 29.234375 -154.757812 29.234375 -148.140625 29.234375 -139.984375 C 29.234375 -131.835938 29.234375 -122.800781 29.234375 -112.875 C 29.234375 -102.945312 29.265625 -92.742188 29.328125 -82.265625 C 29.390625 -71.785156 29.421875 -61.644531 29.421875 -51.84375 C 29.421875 -42.039062 29.421875 -33.242188 29.421875 -25.453125 C 29.421875 -17.671875 29.421875 -11.484375 29.421875 -6.890625 C 29.421875 -2.296875 29.421875 0 29.421875 0 Z M 14.703125 0 "/></g></g></g><g fill="#ffffff" fill-opacity="1"><g transform="translate(186.052465, 281.643916)"><g><path d="M 10.109375 -38.796875 C 10.109375 -43.691406 11.488281 -47.671875 14.25 -50.734375 C 17.007812 -53.804688 20.164062 -55.34375 23.71875 -55.34375 C 26.53125 -55.34375 29.164062 -54.300781 31.625 -52.21875 C 28.925781 -51.351562 27.023438 -49.816406 25.921875 -47.609375 C 24.816406 -45.410156 24.265625 -42.898438 24.265625 -40.078125 C 24.265625 -35.171875 25.945312 -30.328125 29.3125 -25.546875 C 32.6875 -20.773438 37.253906 -16.457031 43.015625 -12.59375 C 48.773438 -8.726562 55.363281 -5.660156 62.78125 -3.390625 C 70.195312 -1.128906 77.945312 0 86.03125 0 C 94 0 101.597656 -0.976562 108.828125 -2.9375 C 116.066406 -4.90625 122.535156 -7.816406 128.234375 -11.671875 C 133.929688 -15.535156 138.40625 -20.316406 141.65625 -26.015625 C 144.90625 -31.710938 146.53125 -38.363281 146.53125 -45.96875 C 146.53125 -53.5625 145.023438 -59.867188 142.015625 -64.890625 C 139.015625 -69.921875 134.910156 -73.9375 129.703125 -76.9375 C 124.492188 -79.9375 118.546875 -82.328125 111.859375 -84.109375 C 105.179688 -85.890625 98.132812 -87.359375 90.71875 -88.515625 C 83.3125 -89.679688 75.929688 -90.875 68.578125 -92.09375 C 61.222656 -93.320312 54.203125 -94.914062 47.515625 -96.875 C 40.835938 -98.84375 34.894531 -101.476562 29.6875 -104.78125 C 24.476562 -108.09375 20.375 -112.414062 17.375 -117.75 C 14.375 -123.082031 12.875 -129.796875 12.875 -137.890625 C 12.875 -146.828125 15.015625 -154.453125 19.296875 -160.765625 C 23.585938 -167.078125 29.285156 -172.191406 36.390625 -176.109375 C 43.503906 -180.035156 51.378906 -182.914062 60.015625 -184.75 C 68.660156 -186.59375 77.273438 -187.515625 85.859375 -187.515625 C 93.210938 -187.515625 100.8125 -186.929688 108.65625 -185.765625 C 116.5 -184.609375 123.851562 -182.742188 130.71875 -180.171875 C 137.582031 -177.597656 143.125 -174.285156 147.34375 -170.234375 C 151.570312 -166.191406 153.6875 -161.226562 153.6875 -155.34375 C 153.6875 -152.53125 153.132812 -150.050781 152.03125 -147.90625 C 150.9375 -145.757812 149.039062 -144.195312 146.34375 -143.21875 C 144.625 -151.789062 140.640625 -159.078125 134.390625 -165.078125 C 128.140625 -171.085938 120.507812 -175.71875 111.5 -178.96875 C 102.488281 -182.21875 92.898438 -183.84375 82.734375 -183.84375 C 65.328125 -183.84375 51.503906 -179.976562 41.265625 -172.25 C 31.035156 -164.53125 25.921875 -153.378906 25.921875 -138.796875 C 25.921875 -132.429688 27.789062 -127.347656 31.53125 -123.546875 C 35.269531 -119.742188 40.320312 -116.707031 46.6875 -114.4375 C 53.0625 -112.175781 60.234375 -110.304688 68.203125 -108.828125 C 76.171875 -107.359375 84.382812 -105.921875 92.84375 -104.515625 C 101.300781 -103.109375 109.507812 -101.269531 117.46875 -99 C 125.4375 -96.726562 132.609375 -93.660156 138.984375 -89.796875 C 145.359375 -85.941406 150.414062 -80.921875 154.15625 -74.734375 C 157.894531 -68.546875 159.765625 -60.671875 159.765625 -51.109375 C 159.765625 -41.796875 157.679688 -33.675781 153.515625 -26.75 C 149.347656 -19.820312 143.738281 -14.117188 136.6875 -9.640625 C 129.632812 -5.171875 121.726562 -1.835938 112.96875 0.359375 C 104.207031 2.566406 95.226562 3.671875 86.03125 3.671875 C 71.082031 3.671875 57.878906 1.894531 46.421875 -1.65625 C 34.960938 -5.207031 26.046875 -10.203125 19.671875 -16.640625 C 13.296875 -23.078125 10.109375 -30.460938 10.109375 -38.796875 Z M 10.109375 -38.796875 "/></g></g></g></svg>